<?xml version="1.0" encoding="utf-8"?>
<!-- Generator: Adobe Illustrator 24.3.0, SVG Export Plug-In . SVG Version: 6.00 Build 0)  -->
<svg version="1.1" id="Layer_1" xmlns="http://www.w3.org/2000/svg" xmlns:xlink="http://www.w3.org/1999/xlink" x="0px" y="0px"
	 viewBox="0 0 252.73 252.35" style="enable-background:new 0 0 252.73 252.35;" xml:space="preserve">
<style type="text/css">
	.st0{fill:#FFFFFF;}
	.st1{fill:#C69930;}
	.st2{fill:#0645E7;}
	.st3{fill:#22C9FC;}
	.st4{fill:#098EF4;}
	.st5{fill:#3C3C3B;}
	.st6{fill:#0052CC;}
</style>
<g>
	<path class="st0" d="M82.11,211.96H40.47v-41.66C49.68,188.15,64.28,202.75,82.11,211.96z"/>
	<path class="st0" d="M121.03,195.05v16.83c-43.17-2.68-77.72-37.24-80.4-80.4h16.59C59.85,165.41,87.02,192.5,121.03,195.05z"/>
	<path class="st0" d="M212.26,120.66H195.5c-2.63-33.85-29.72-60.89-63.65-63.54V40.23C175.02,42.91,209.57,77.46,212.26,120.66z"/>
	<rect x="40.63" y="120.66" class="st0" width="16.38" height="0.08"/>
	<rect x="72.47" y="120.66" class="st0" width="16.54" height="0.08"/>
	<rect x="40.47" y="120.66" class="st0" width="0.16" height="0.08"/>
	<rect x="40.47" y="40.17" class="st0" width="16.54" height="80.48"/>
	<rect x="104.54" y="40.47" class="st0" width="16.54" height="80.48"/>
	<rect x="72.47" y="40.17" class="st0" width="16.54" height="80.48"/>
	<path class="st0" d="M121.03,163.42v17.48c-25.56-2.82-45.83-23.49-48.29-49.42h16.43C91.53,147.96,104.55,161.01,121.03,163.42z"
		/>
	<path class="st0" d="M181.44,120.66h-17.56c-2.39-16.56-15.49-29.61-32.03-31.95V71.15C158.03,73.41,178.89,94.32,181.44,120.66z"
		/>
	<path class="st0" d="M121.03,131.47v16.54c-8.11-2.04-14.47-8.43-16.46-16.54H121.03z"/>
	<path class="st0" d="M148.47,120.66h-16.62v-16.56C140.01,106.08,146.46,112.5,148.47,120.66z"/>
	<path class="st0" d="M212.26,131.47c-2.68,43.17-37.24,77.72-80.4,80.4v-80.4H212.26z"/>
</g>
</svg>
