<?xml version="1.0" encoding="utf-8"?>
<!-- Generator: Adobe Illustrator 24.3.0, SVG Export Plug-In . SVG Version: 6.00 Build 0)  -->
<svg version="1.1" id="Layer_1" xmlns="http://www.w3.org/2000/svg" xmlns:xlink="http://www.w3.org/1999/xlink" x="0px" y="0px"
	 viewBox="0 0 310.15 307.42" style="enable-background:new 0 0 310.15 307.42;" xml:space="preserve">
<style type="text/css">
	.st0{fill:#FFFFFF;}
	.st1{fill:#C69930;}
	.st2{fill:#0645E7;}
	.st3{fill:#22C9FC;}
	.st4{fill:#098EF4;}
	.st5{fill:#3C3C3B;}
	.st6{fill:#0052CC;}
</style>
<g>
	<rect x="73.52" y="120.66" class="st0" width="0.16" height="0.08"/>
	<path class="st0" d="M111.32,211.96H69.69v-41.66C78.9,188.15,93.5,202.75,111.32,211.96z"/>
	<path class="st0" d="M150.25,195.05v16.83c-43.17-2.68-77.72-37.24-80.4-80.4h16.59C89.07,165.41,116.24,192.5,150.25,195.05z"/>
	<path class="st0" d="M241.47,120.66h-16.75C222.09,86.8,195,59.77,161.07,57.11V40.23C204.24,42.91,238.79,77.46,241.47,120.66z"/>
	<rect x="69.85" y="120.66" class="st0" width="16.38" height="0.08"/>
	<rect x="101.69" y="120.66" class="st0" width="16.54" height="0.08"/>
	<rect x="69.69" y="120.66" class="st0" width="0.16" height="0.08"/>
	<rect x="69.69" y="40.17" class="st0" width="16.54" height="80.48"/>
	<rect x="133.75" y="40.47" class="st0" width="16.54" height="80.48"/>
	<rect x="101.69" y="40.17" class="st0" width="16.54" height="80.48"/>
	<path class="st0" d="M150.25,163.42v17.48c-25.56-2.82-45.83-23.49-48.29-49.42h16.43C120.75,147.96,133.77,161.01,150.25,163.42z"
		/>
	<path class="st0" d="M210.65,120.66H193.1c-2.39-16.56-15.49-29.61-32.03-31.95V71.15C187.24,73.41,208.1,94.32,210.65,120.66z"/>
	<path class="st0" d="M150.25,131.47v16.54c-8.11-2.04-14.47-8.43-16.46-16.54H150.25z"/>
	<path class="st0" d="M177.69,120.66h-16.62v-16.56C169.23,106.08,175.67,112.5,177.69,120.66z"/>
	<path class="st0" d="M241.47,131.47c-2.68,43.17-37.24,77.72-80.4,80.4v-80.4H241.47z"/>
	<g>
		<path class="st0" d="M40.17,233.33c2.75-0.46,6.27-0.71,10-0.71c6.43,0,10.86,1.33,14.02,3.98c3.31,2.7,5.35,6.78,5.35,12.65
			c0,6.12-2.09,10.71-5.35,13.67c-3.42,3.11-8.87,4.69-15.55,4.69c-3.67,0-6.43-0.2-8.47-0.46V233.33z M46.44,262.45
			c0.87,0.15,2.19,0.15,3.47,0.15c8.16,0.05,13-4.44,13-13.16c0.05-7.6-4.33-11.93-12.19-11.93c-1.99,0-3.42,0.15-4.28,0.36V262.45z
			"/>
		<path class="st0" d="M79.19,256.58c0.15,4.49,3.67,6.43,7.65,6.43c2.91,0,5-0.41,6.88-1.12l0.92,4.33
			c-2.14,0.87-5.1,1.53-8.67,1.53c-8.06,0-12.8-4.95-12.8-12.54c0-6.88,4.18-13.36,12.14-13.36c8.06,0,10.71,6.63,10.71,12.09
			c0,1.17-0.1,2.09-0.2,2.65H79.19z M90.1,252.2c0.05-2.29-0.97-6.07-5.15-6.07c-3.88,0-5.51,3.52-5.76,6.07H90.1z"/>
		<path class="st0" d="M105.5,256.58c0.15,4.49,3.67,6.43,7.65,6.43c2.91,0,5-0.41,6.88-1.12l0.92,4.33
			c-2.14,0.87-5.1,1.53-8.67,1.53c-8.06,0-12.8-4.95-12.8-12.54c0-6.88,4.18-13.36,12.14-13.36c8.06,0,10.71,6.63,10.71,12.09
			c0,1.17-0.1,2.09-0.2,2.65H105.5z M116.42,252.2c0.05-2.29-0.97-6.07-5.15-6.07c-3.88,0-5.51,3.52-5.76,6.07H116.42z"/>
		<path class="st0" d="M127.38,250.67c0-3.26-0.1-5.92-0.2-8.26h5.51l0.31,3.83h0.1c1.84-2.8,4.74-4.39,8.52-4.39
			c5.71,0,10.45,4.9,10.45,12.65c0,8.98-5.66,13.31-11.32,13.31c-3.11,0-5.71-1.33-6.99-3.31h-0.1v12.85h-6.27V250.67z
			 M133.65,256.84c0,0.61,0.05,1.17,0.2,1.73c0.61,2.55,2.86,4.39,5.51,4.39c3.98,0,6.32-3.32,6.32-8.21c0-4.38-2.14-7.96-6.17-7.96
			c-2.6,0-5,1.89-5.61,4.64c-0.15,0.51-0.25,1.07-0.25,1.58V256.84z"/>
		<path class="st0" d="M160.58,242.41l2.6,11.27c0.56,2.65,1.12,5.35,1.58,8.06h0.1c0.51-2.7,1.33-5.46,2.04-8.01l3.21-11.32h5.1
			l3.11,11.02c0.76,2.91,1.43,5.61,1.99,8.31h0.1c0.41-2.7,0.97-5.41,1.63-8.31l2.75-11.02h6.17l-7.8,24.83h-5.81l-2.96-10.1
			c-0.77-2.6-1.33-4.95-1.89-7.96h-0.1c-0.51,3.06-1.17,5.51-1.89,7.96l-3.16,10.1h-5.86l-7.34-24.83H160.58z"/>
		<path class="st0" d="M201.69,235.47c0,1.89-1.38,3.37-3.57,3.37c-2.09,0-3.47-1.48-3.47-3.37c0-1.94,1.43-3.42,3.52-3.42
			C200.31,232.06,201.64,233.53,201.69,235.47z M195.01,267.24v-24.83h6.32v24.83H195.01z"/>
		<path class="st0" d="M205.72,263.62l9.33-11.93c1.27-1.53,2.35-2.75,3.67-4.18v-0.1h-12.09v-5h19.73v3.83l-9.13,11.68
			c-1.22,1.48-2.4,2.91-3.67,4.23v0.1h13.11v5h-20.96V263.62z"/>
		<path class="st0" d="M238.15,257.5l-2.96,9.74h-6.48l11.02-34.37h8.01l11.17,34.37h-6.73l-3.11-9.74H238.15z M247.99,252.76
			l-2.7-8.46c-0.66-2.09-1.22-4.44-1.73-6.43h-0.1c-0.51,1.99-1.02,4.39-1.63,6.43l-2.65,8.46H247.99z"/>
		<path class="st0" d="M269.97,232.87v34.37h-6.27v-34.37H269.97z"/>
	</g>
</g>
</svg>
